<svg xmlns="http://www.w3.org/2000/svg" fill="#077ca8" width="304" height="168" viewBox="0 0 304 168"><path d="M4455-2419H4249.5a49.2,49.2,0,0,1-19.268-3.89A49.328,49.328,0,0,1,4214.5-2433.5a49.334,49.334,0,0,1-10.609-15.734A49.189,49.189,0,0,1,4200-2468.5a49.193,49.193,0,0,1,3.89-19.268A49.334,49.334,0,0,1,4214.5-2503.5a49.336,49.336,0,0,1,15.734-10.608A49.2,49.2,0,0,1,4249.5-2518h.5a68.574,68.574,0,0,1,5.422-26.86,68.764,68.764,0,0,1,14.788-21.932,68.774,68.774,0,0,1,21.932-14.787A68.577,68.577,0,0,1,4319-2587a69.13,69.13,0,0,1,18.8,2.594,68.636,68.636,0,0,1,16.826,7.307,69.33,69.33,0,0,1,24.875,25.907,44.294,44.294,0,0,1,10.43-4.289A44.632,44.632,0,0,1,4401.5-2557a44.4,44.4,0,0,1,29.857,11.5,44.388,44.388,0,0,1,14.394,28.268,49.963,49.963,0,0,1,8.748-.771,49.2,49.2,0,0,1,19.268,3.89A49.336,49.336,0,0,1,4489.5-2503.5a49.334,49.334,0,0,1,10.609,15.734A49.193,49.193,0,0,1,4504-2468.5a49.2,49.2,0,0,1-3.844,19.159,49.331,49.331,0,0,1-10.49,15.678,49.352,49.352,0,0,1-15.573,10.634A49.169,49.169,0,0,1,4455-2419h0Zm-124.13-73.715h0l51.265,50.8-51.265-101.6-51.265,101.6,51.265-50.8h0Z" transform="translate(-4200 2587)"/></svg>